<?xml version="1.0" encoding="UTF-8"?>
<svg version="1.1" xmlns="http://www.w3.org/2000/svg" width="600" height="100">
<path d="M0 0 C2.97 0 5.94 0 9 0 C12.56764405 6.79432444 15.39090517 13.79612202 18.1875 20.9375 C19.074506 23.19752529 19.96370575 25.45669125 20.85546875 27.71484375 C21.24371826 28.70605225 21.63196777 29.69726074 22.03198242 30.71850586 C22.79998477 32.92490176 22.79998477 32.92490176 24 34 C24.38857178 33.00556885 24.77714355 32.0111377 25.17749023 30.98657227 C26.61543982 27.30861346 28.05682411 23.63200898 29.49926758 19.95581055 C30.12390911 18.36243014 30.7476098 16.76868058 31.37036133 15.17456055 C32.26398474 12.88753866 33.16094763 10.60185172 34.05859375 8.31640625 C34.3377916 7.59973282 34.61698944 6.88305939 34.90464783 6.14466858 C36.88612829 1.11387171 36.88612829 1.11387171 38 0 C39.68608966 -0.07205511 41.37500659 -0.08386068 43.0625 -0.0625 C43.98160156 -0.05347656 44.90070313 -0.04445313 45.84765625 -0.03515625 C46.55792969 -0.02355469 47.26820313 -0.01195313 48 0 C48.02526945 6.6752034 48.04283268 13.35039457 48.05493164 20.02563477 C48.05997325 22.29842591 48.06680637 24.5712138 48.07543945 26.84399414 C48.08751261 30.10303551 48.09322987 33.36203417 48.09765625 36.62109375 C48.10281754 37.64400009 48.10797882 38.66690643 48.11329651 39.72080994 C48.11337204 40.66170975 48.11344757 41.60260956 48.11352539 42.57202148 C48.115746 43.40475082 48.11796661 44.23748016 48.12025452 45.09544373 C48 47 48 47 47 48 C45.02 48 43.04 48 41 48 C40.67 36.12 40.34 24.24 40 12 C36.51188091 20.94336011 36.51188091 20.94336011 33.0300293 29.88916016 C32.59086182 31.01112793 32.15169434 32.1330957 31.69921875 33.2890625 C31.25408936 34.43068848 30.80895996 35.57231445 30.3503418 36.74853516 C29.0353053 39.91498896 27.57148389 42.95386306 26 46 C24.35 46 22.7 46 21 46 C17.31787378 39.0486963 14.52935885 31.85137651 11.75 24.5 C10.1825 20.375 8.615 16.25 7 12 C6.67 23.88 6.34 35.76 6 48 C4.02 48 2.04 48 0 48 C0 32.16 0 16.32 0 0 Z " fill="#542AD4" transform="translate(156,21)"/>
<path d="M0 0 C23 0 23 0 30 4 C32.85764129 8.14001772 33.34702581 12.85488583 32.5625 17.75 C31.24362288 22.46498572 29.04637901 24.35746677 25 27 C21.37918537 28.20693821 18.0749281 28.10782079 14.3125 28.0625 C10.6928125 28.0315625 10.6928125 28.0315625 7 28 C7 34.6 7 41.2 7 48 C4.69 48 2.38 48 0 48 C0 32.16 0 16.32 0 0 Z M7 5 C7 10.94 7 16.88 7 23 C9.041875 22.9175 11.08375 22.835 13.1875 22.75 C14.33605469 22.70359375 15.48460937 22.6571875 16.66796875 22.609375 C20.55527816 21.89844854 22.27919454 20.83647741 25 18 C25.77597959 16.03474875 25.77597959 16.03474875 25.625 14 C25.64433594 13.01 25.64433594 13.01 25.6640625 12 C24.60732082 8.81734272 22.80311714 7.74483611 20 6 C16.66097809 5.30897518 16.66097809 5.30897518 13.1875 5.25 C11.145625 5.1675 9.10375 5.085 7 5 Z " fill="#4F24D2" transform="translate(266,21)"/>
<path d="M0 0 C4.49167626 2.12763612 7.06291663 4.41217097 9 9 C9.33 11.97 9.66 14.94 10 18 C-2.375 18.495 -2.375 18.495 -15 19 C-12.97384121 26.77277038 -12.97384121 26.77277038 -9 29 C-6.81663332 29.2786158 -6.81663332 29.2786158 -4.5 29.1875 C-3.33984375 29.17783203 -3.33984375 29.17783203 -2.15625 29.16796875 C0.18348849 29.0730565 0.18348849 29.0730565 3 28 C4.20882096 25.99983534 4.20882096 25.99983534 5 24 C6.65 24.66 8.3 25.32 10 26 C8.55536047 29.37082558 6.75336875 31.58037292 4 34 C-1.38682874 35.79560958 -7.72859049 35.96286167 -13.203125 34.3515625 C-16.81807977 32.51265073 -19.53106903 29.89112595 -21.3359375 26.25 C-23.0317198 20.50429056 -23.18274155 14.11681482 -21.046875 8.48828125 C-16.07711849 -0.0200677 -9.36042944 -1.14151579 0 0 Z M-15 11 C-15 11.99 -15 12.98 -15 14 C-9.06 14 -3.12 14 3 14 C1.59713901 8.42367583 1.59713901 8.42367583 -2 5 C-8.98279771 3.98636807 -11.26156859 5.04187494 -15 11 Z " fill="#5328D3" transform="translate(446,34)"/>
<path d="M0 0 C5.3313898 4.93153556 7.2811385 7.97486213 7.75 15.125 C7.65940089 19.99923217 6.52088754 24.22694406 3.03515625 27.82421875 C-2.43240115 32.48968949 -6.1779992 32.71852321 -13.22265625 32.65625 C-17.8403878 32.17191105 -20.44428325 30.75362246 -23.5 27.3125 C-26.98825095 22.69900681 -27.06734487 17.90171001 -26.9140625 12.29296875 C-26.10659072 6.48069549 -23.49260677 2.86770528 -18.9375 -0.6875 C-12.5162582 -2.55549761 -6.09350574 -2.93794027 0 0 Z M-18.5 7.3125 C-19.94440034 11.64570102 -20.04168843 15.7839847 -19.5 20.3125 C-17.70353146 23.24673195 -16.5558929 24.78455355 -13.5 26.3125 C-7.53702395 26.98028342 -7.53702395 26.98028342 -2.5625 24 C0.67435625 19.78227823 0.85372437 16.5299344 0.5 11.3125 C-1.07724302 7.33183905 -1.91000911 5.70582726 -5.5 3.3125 C-11.32702284 2.74859456 -14.29010785 2.84746287 -18.5 7.3125 Z " fill="#5329D3" transform="translate(354.5,36.6875)"/>
<path d="M0 0 C2.64 0 5.28 0 8 0 C8.23710693 0.63091553 8.47421387 1.26183105 8.71850586 1.91186523 C9.78870612 4.75480595 10.86304543 7.59616458 11.9375 10.4375 C12.31068359 11.43072266 12.68386719 12.42394531 13.06835938 13.44726562 C13.42607422 14.39150391 13.78378906 15.33574219 14.15234375 16.30859375 C14.48226318 17.18314209 14.81218262 18.05769043 15.15209961 18.95874023 C15.82992317 20.95717752 15.82992317 20.95717752 17 22 C19.64 14.74 22.28 7.48 25 0 C27.64 0 30.28 0 33 0 C30.36662856 6.68029648 27.69655274 13.34496097 25 20 C24.61005859 20.96615234 24.22011719 21.93230469 23.81835938 22.92773438 C22.66404228 25.77045557 21.49107681 28.60476275 20.3125 31.4375 C19.95679932 32.31817139 19.60109863 33.19884277 19.23461914 34.10620117 C17.18565545 38.97278521 15.2754013 42.67168127 11 46 C7.1875 46.3125 7.1875 46.3125 4 46 C3.67 44.02 3.34 42.04 3 40 C3.928125 39.773125 4.85625 39.54625 5.8125 39.3125 C9.0694142 38.24464629 9.0694142 38.24464629 10.9375 35.8125 C13.09791825 30.0937458 10.88862005 25.45152395 8.49609375 20.13671875 C7.48575248 17.98264476 6.46594767 15.83298821 5.4375 13.6875 C4.41215052 11.5262615 3.38984918 9.36357334 2.37109375 7.19921875 C1.6893811 5.77355591 1.6893811 5.77355591 0.99389648 4.3190918 C0 2 0 2 0 0 Z " fill="#572DD4" transform="translate(210,35)"/>
<path d="M0 0 C1.59521484 0.00966797 1.59521484 0.00966797 3.22265625 0.01953125 C5.9375 0.1875 5.9375 0.1875 7.9375 1.1875 C7.9375 1.8475 7.9375 2.5075 7.9375 3.1875 C10.2475 3.1875 12.5575 3.1875 14.9375 3.1875 C14.9375 5.4975 14.9375 7.8075 14.9375 10.1875 C12.2975 10.1875 9.6575 10.1875 6.9375 10.1875 C6.6075 8.8675 6.2775 7.5475 5.9375 6.1875 C4.45843108 6.16060784 2.97922517 6.14115379 1.5 6.125 C0.67628906 6.11339844 -0.14742188 6.10179687 -0.99609375 6.08984375 C-3.05413938 5.95482652 -3.05413938 5.95482652 -4.0625 7.1875 C-4.29442865 8.70219448 -4.47465238 10.22504562 -4.625 11.75 C-4.769375 13.214375 -4.91375 14.67875 -5.0625 16.1875 C-2.0925 16.1875 0.8775 16.1875 3.9375 16.1875 C3.9375 17.5075 3.9375 18.8275 3.9375 20.1875 C0.9675 20.1875 -2.0025 20.1875 -5.0625 20.1875 C-5.0625 29.7575 -5.0625 39.3275 -5.0625 49.1875 C-7.3725 49.1875 -9.6825 49.1875 -12.0625 49.1875 C-12.0625 39.6175 -12.0625 30.0475 -12.0625 20.1875 C-13.7125 20.1875 -15.3625 20.1875 -17.0625 20.1875 C-17.0625 18.8675 -17.0625 17.5475 -17.0625 16.1875 C-15.4125 16.1875 -13.7625 16.1875 -12.0625 16.1875 C-12.1553125 14.393125 -12.1553125 14.393125 -12.25 12.5625 C-12.25 8.43035472 -11.32671886 5.70961822 -9.0625 2.1875 C-5.57329626 -0.13863583 -4.11297454 -0.05497293 0 0 Z " fill="#552BD4" transform="translate(383.0625,18.8125)"/>
<path d="M0 0 C-0.0625 3.3125 -0.0625 3.3125 -1 7 C-4.375 8.625 -4.375 8.625 -8 10 C-11.77595153 14.42425875 -11.54292098 19.27305814 -11.6875 24.8125 C-11.72166016 25.69615234 -11.75582031 26.57980469 -11.79101562 27.49023438 C-11.87310433 29.65972167 -11.93823879 31.8298389 -12 34 C-14.31 34 -16.62 34 -19 34 C-19 23.11 -19 12.22 -19 1 C-16.69 1 -14.38 1 -12 1 C-11.67 2.32 -11.34 3.64 -11 5 C-10.443125 4.360625 -9.88625 3.72125 -9.3125 3.0625 C-6.3153771 0.38939039 -3.9330547 0 0 0 Z M-13 6 C-12 8 -12 8 -12 8 Z " fill="#5A32D5" transform="translate(325,34)"/>
<path d="M0 0 C1.98 0 3.96 0 6 0 C6 16.17 6 32.34 6 49 C4.02 49 2.04 49 0 49 C0 32.83 0 16.66 0 0 Z " fill="#3E0FCE" transform="translate(409,19)"/>
<path d="M0 0 C1.98 0 3.96 0 6 0 C6 10.89 6 21.78 6 33 C4.02 33 2.04 33 0 33 C0 22.11 0 11.22 0 0 Z " fill="#4214CF" transform="translate(391,35)"/>
<path d="M0 0 C0.66 0 1.32 0 2 0 C2 0.66 2 1.32 2 2 C4.31 2 6.62 2 9 2 C9 4.31 9 6.62 9 9 C6.36 9 3.72 9 1 9 C0.67 6.03 0.34 3.06 0 0 Z " fill="#613AD7" transform="translate(389,20)"/>
<path d="M0 0 C0.66 0.33 1.32 0.66 2 1 C-0.31 3.31 -2.62 5.62 -5 8 C-5.33 7.34 -5.66 6.68 -6 6 C-4 4 -2 2 0 0 Z " fill="#886AE0" transform="translate(336,36)"/>
</svg>
