<?xml version="1.0" encoding="UTF-8"?>
<svg version="1.1" xmlns="http://www.w3.org/2000/svg" width="600" height="100">
<path d="M0 0 C3.63 0 7.26 0 11 0 C15.35433002 9.14601549 19.22121675 18.36528597 22.875 27.8125 C23.37723399 29.10235774 23.87983669 30.39207197 24.3828125 31.68164062 C25.59214886 34.78637916 26.79781624 37.89248656 28 41 C29.58955465 38.61566803 30.58007376 36.78303218 31.60400391 34.17114258 C32.05424423 33.03029961 32.05424423 33.03029961 32.51358032 31.8664093 C32.83136444 31.05068954 33.14914856 30.23496979 33.4765625 29.39453125 C33.80667328 28.55532639 34.13678406 27.71612152 34.47689819 26.85148621 C35.52958705 24.17311433 36.57734852 21.49284574 37.625 18.8125 C38.33821779 16.99531556 39.05175562 15.17825669 39.765625 13.36132812 C41.5141324 8.90900023 43.2582234 4.45496509 45 0 C48.96 0 52.92 0 57 0 C57 18.81 57 37.62 57 57 C54.36 57 51.72 57 49 57 C48.67 42.81 48.34 28.62 48 14 C44.27036456 23.74955948 44.27036456 23.74955948 40.55200195 33.50341797 C37.7271685 40.87366149 34.74645388 48.03585526 31 55 C29.02 55 27.04 55 25 55 C23.38035554 51.10890767 21.76305229 47.2168522 20.14770508 43.32397461 C19.60046103 42.00601386 19.05263094 40.68829626 18.50415039 39.37084961 C17.70556182 37.45233389 16.90924809 35.53288595 16.11328125 33.61328125 C15.63673096 32.46641846 15.16018066 31.31955566 14.66918945 30.13793945 C12.37599427 24.45308277 10.20052535 18.72136591 8 13 C8 27.52 8 42.04 8 57 C5.36 57 2.72 57 0 57 C0 38.19 0 19.38 0 0 Z M49 9 C50 12 50 12 50 12 Z " fill="#5227D3" transform="translate(123,23)"/>
<path d="M0 0 C27 0 27 0 35 4 C38.82659707 8.78324634 39.59731293 12.55194256 39.3203125 18.63671875 C38.68915649 23.29341856 36.99418314 26.05814229 33.625 29.25 C27.94016998 33.03988668 23.3301368 33.26025866 16.6875 33.125 C13.820625 33.08375 10.95375 33.0425 8 33 C8 40.92 8 48.84 8 57 C5.36 57 2.72 57 0 57 C0 38.19 0 19.38 0 0 Z M8 6 C8 13.26 8 20.52 8 28 C11.526875 27.87625 11.526875 27.87625 15.125 27.75 C16.21772217 27.72631348 16.21772217 27.72631348 17.33251953 27.70214844 C22.28770711 27.44679567 25.15576375 26.05804658 29 23 C31.13991907 20.30184117 31.00027114 19.00759189 30.875 15.5 C29.88333174 11.53332694 29.36912287 10.27415794 26 8 C19.85760852 5.84585469 14.65805046 6 8 6 Z " fill="#4C1FD2" transform="translate(264,23)"/>
<path d="M0 0 C4.53538865 2.11130161 7.1653623 4.90552332 10 9 C11 12 11 12 11 21 C1.1 21 -8.8 21 -19 21 C-16.01565411 29.1138279 -16.01565411 29.1138279 -10 34 C-6.61439986 34.41945488 -3.37901783 34.49487978 0 34 C3.02409364 31.72872666 3.02409364 31.72872666 5 29 C5.66 28.67 6.32 28.34 7 28 C8.32 28.99 9.64 29.98 11 31 C10.66960927 34.08364682 10.02342865 34.97847097 7.6875 37.125 C2.94319723 40.43497868 0.00657019 41.29352719 -5.875 41.3125 C-7.06867188 41.32925781 -8.26234375 41.34601563 -9.4921875 41.36328125 C-14.82885961 40.81059694 -18.77130655 38.84033186 -22.25 34.75 C-26.537959 29.40688878 -27.58244361 23.75634587 -27 17 C-25.64010099 9.43303718 -22.18705965 5.41369861 -16 1 C-11.35174477 -1.32412762 -5.05877924 -0.41484294 0 0 Z M-17.00390625 11.17578125 C-18.23962356 13.09243077 -18.23962356 13.09243077 -18 16 C-11.07 16 -4.14 16 3 16 C2.56794609 10.26501393 2.56794609 10.26501393 0 7.625 C-7.0329043 3.81551017 -12.18295795 4.9438237 -17.00390625 11.17578125 Z " fill="#4D20D2" transform="translate(479,39)"/>
<path d="M0 0 C5.11095213 3.7054403 8.98246418 7.53060754 10.5 13.8125 C11.22072579 20.50636416 10.89729792 25.9550898 7.5 31.8125 C3.68706383 36.22747872 0.07582871 39.50520815 -5.83984375 40.2109375 C-7.02707031 40.20320313 -8.21429688 40.19546875 -9.4375 40.1875 C-10.62214844 40.19523437 -11.80679687 40.20296875 -13.02734375 40.2109375 C-19.40462076 39.47923643 -23.34711426 36.63964406 -27.23828125 31.7578125 C-30.78659969 26.28703051 -30.87900014 20.52710451 -30.03515625 14.203125 C-28.57411698 7.67643862 -24.79500885 3.64293193 -19.5 -0.1875 C-13.37803674 -2.22815442 -6.08048572 -2.06302194 0 0 Z M-19.5 8.8125 C-22.57668568 14.51307611 -22.86970592 19.33946641 -21.30859375 25.57421875 C-19.95326739 29.32591925 -18.08816669 32.01841665 -14.5 33.8125 C-10.75004517 34.33749368 -7.08805413 34.61822852 -3.64453125 32.87109375 C-0.37757664 30.29786284 1.58397178 27.84302417 2.5 23.8125 C3.08489973 18.08048261 2.81293886 13.72478865 -0.5 8.8125 C-2.7316504 6.31830249 -4.32140825 5.02250362 -7.6484375 4.4296875 C-12.80117921 4.17290635 -16.06337478 4.66833429 -19.5 8.8125 Z " fill="#4F24D2" transform="translate(368.5,40.1875)"/>
<path d="M0 0 C4.01157602 -1.09822614 7.02543589 -1.33320814 11 0 C14.87645983 3.97254864 17.34430171 9.133531 19.90966797 14.00488281 C21.43666603 16.79902257 23.18814369 19.38333281 25 22 C27.5082688 19.08924155 29.55951917 16.12601603 31.4453125 12.79296875 C31.88359375 12.04208984 32.321875 11.29121094 32.7734375 10.51757812 C33.67718163 8.95953369 34.55486514 7.38608984 35.40625 5.79882812 C36.7926804 3.4847716 37.93526966 1.74348756 40 0 C43.43895945 -0.67447061 46.54575191 -0.50191749 50 0 C48.59902123 2.95401143 46.98841029 5.6080327 45.13671875 8.30078125 C44.30043945 9.51991211 44.30043945 9.51991211 43.44726562 10.76367188 C42.86654297 11.60478516 42.28582031 12.44589844 41.6875 13.3125 C41.11837891 14.14201172 40.54925781 14.97152344 39.96289062 15.82617188 C39.40150391 16.64279297 38.84011719 17.45941406 38.26171875 18.30078125 C37.71201416 19.11232666 37.16230957 19.92387207 36.59594727 20.76000977 C35 23 35 23 33.49584961 24.67553711 C28.59885503 30.27598675 29.22112082 36.81362185 29.1875 43.9375 C29.16236328 45.19369141 29.13722656 46.44988281 29.11132812 47.74414062 C29.0526665 50.8297423 29.01623074 53.91393188 29 57 C26.36 57 23.72 57 21 57 C21.01160156 56.20940186 21.02320313 55.41880371 21.03515625 54.60424805 C21.06493278 50.96433319 21.03284091 47.32736753 21 43.6875 C21.01933594 42.44419922 21.03867188 41.20089844 21.05859375 39.91992188 C20.90547522 30.19689542 18.23636091 25.27096787 12 18 C10.92827319 16.51357785 9.87553303 15.01316939 8.84765625 13.49609375 C8.38166016 12.81869141 7.91566406 12.14128906 7.43554688 11.44335938 C6.98244141 10.78142578 6.52933594 10.11949219 6.0625 9.4375 C5.58232422 8.74076172 5.10214844 8.04402344 4.60742188 7.32617188 C1.12932224 2.25864448 1.12932224 2.25864448 0 0 Z " fill="#5125D3" transform="translate(186,23)"/>
<path d="M0 0 C1.15371094 -0.01417969 2.30742187 -0.02835938 3.49609375 -0.04296875 C6.5625 0.1875 6.5625 0.1875 9.5625 2.1875 C11.6117094 2.63889459 11.6117094 2.63889459 13.75 2.8125 C15.008125 2.93625 16.26625 3.06 17.5625 3.1875 C17.5625 5.8275 17.5625 8.4675 17.5625 11.1875 C14.5925 11.1875 11.6225 11.1875 8.5625 11.1875 C8.2325 9.5375 7.9025 7.8875 7.5625 6.1875 C6.5725 6.5175 5.5825 6.8475 4.5625 7.1875 C3.20770308 7.18213447 1.85268254 7.13835136 0.5 7.0625 C-0.799375 7.10375 -2.09875 7.145 -3.4375 7.1875 C-5.46100324 10.22275486 -5.75874018 11.38176202 -6.0625 14.875 C-6.18625 16.298125 -6.31 17.72125 -6.4375 19.1875 C-2.8075 19.1875 0.8225 19.1875 4.5625 19.1875 C4.5625 20.8375 4.5625 22.4875 4.5625 24.1875 C0.9325 24.1875 -2.6975 24.1875 -6.4375 24.1875 C-6.4375 35.4075 -6.4375 46.6275 -6.4375 58.1875 C-9.0775 58.1875 -11.7175 58.1875 -14.4375 58.1875 C-14.4375 46.9675 -14.4375 35.7475 -14.4375 24.1875 C-16.4175 24.1875 -18.3975 24.1875 -20.4375 24.1875 C-20.4375 22.5375 -20.4375 20.8875 -20.4375 19.1875 C-18.4575 19.1875 -16.4775 19.1875 -14.4375 19.1875 C-14.42332031 18.39085938 -14.40914063 17.59421875 -14.39453125 16.7734375 C-13.95636031 7.0389372 -13.95636031 7.0389372 -11 3.5 C-7.15093143 0.02645032 -5.12375564 0.02856051 0 0 Z " fill="#5125D3" transform="translate(404.4375,20.8125)"/>
<path d="M0 0 C2.05078125 0.03255208 4.1015625 0.06510417 6.15234375 0.09765625 C5.82234375 2.40765625 5.49234375 4.71765625 5.15234375 7.09765625 C3.23177083 7.61848958 1.31119792 8.13932292 -0.609375 8.66015625 C-4.28088831 11.0181264 -6.18081742 14.10077161 -7.84765625 18.09765625 C-8.54030691 21.93919008 -8.63714157 25.7005036 -8.66015625 29.59765625 C-8.68529297 30.61085938 -8.71042969 31.6240625 -8.73632812 32.66796875 C-8.79474685 35.14492262 -8.83135672 37.62012795 -8.84765625 40.09765625 C-11.48765625 40.09765625 -14.12765625 40.09765625 -16.84765625 40.09765625 C-16.84765625 27.22765625 -16.84765625 14.35765625 -16.84765625 1.09765625 C-14.20765625 1.09765625 -11.56765625 1.09765625 -8.84765625 1.09765625 C-8.51765625 2.74765625 -8.18765625 4.39765625 -7.84765625 6.09765625 C-7.04328125 5.29328125 -6.23890625 4.48890625 -5.41015625 3.66015625 C-1.84765625 0.09765625 -1.84765625 0.09765625 0 0 Z " fill="#5328D3" transform="translate(328.84765625,38.90234375)"/>
<path d="M0 0 C2.31 0 4.62 0 7 0 C7 19.47 7 38.94 7 59 C4.69 59 2.38 59 0 59 C0 39.53 0 20.06 0 0 Z " fill="#3A09CD" transform="translate(435,20)"/>
<path d="M0 0 C2.64 0 5.28 0 8 0 C8 12.87 8 25.74 8 39 C5.36 39 2.72 39 0 39 C0 26.13 0 13.26 0 0 Z " fill="#5227D3" transform="translate(414,40)"/>
<path d="M0 0 C2.64 0 5.28 0 8 0 C8 2.64 8 5.28 8 8 C5.36 8 2.72 8 0 8 C0 5.36 0 2.72 0 0 Z " fill="#3E0ECE" transform="translate(414,24)"/>
<path d="M0 0 C-0.33 0.99 -0.66 1.98 -1 3 C-1 2.34 -1 1.68 -1 1 C-6.68748885 2.25124755 -9.72847508 4.04102568 -14 8 C-13.12269491 5.29497597 -12.28331029 3.31599994 -10.375 1.1875 C-6.84016181 -0.5799191 -3.92581331 -0.19629067 0 0 Z " fill="#8668E0" transform="translate(335,39)"/>
<path d="M0 0 C0.66 0.33 1.32 0.66 2 1 C-0.64 3.64 -3.28 6.28 -6 9 C-6.33 8.01 -6.66 7.02 -7 6 C-4.69 4.02 -2.38 2.04 0 0 Z " fill="#7553DB" transform="translate(349,40)"/>
</svg>
