<svg width="203" height="248" version="1.1" xmlns="http://www.w3.org/2000/svg" desc="Created with imagetracer.js version 1.2.6" ><path fill="rgb(200,200,200)" stroke="rgb(200,200,200)" stroke-width="1" opacity="1" d="M 122.5 1 L 123 11.5 L 122 11.5 L 122.5 1 Z " /><path fill="rgb(200,200,200)" stroke="rgb(200,200,200)" stroke-width="1" opacity="1" d="M 30.5 4 L 31 7.5 L 30 7.5 L 30.5 4 Z " /><path fill="rgb(200,200,200)" stroke="rgb(200,200,200)" stroke-width="1" opacity="1" d="M 101.5 10 L 100.5 12 L 101.5 10 Z " /><path fill="rgb(200,200,200)" stroke="rgb(200,200,200)" stroke-width="1" opacity="1" d="M 66.5 13 L 69 13.5 L 66.5 14 L 66.5 13 Z " /><path fill="rgb(200,200,200)" stroke="rgb(200,200,200)" stroke-width="1" opacity="1" d="M 60.5 14 L 63 14.5 L 60.5 15 L 60.5 14 Z " /><path fill="rgb(200,200,200)" stroke="rgb(200,200,200)" stroke-width="1" opacity="1" d="M 173.5 29 L 185 29.5 L 173.5 30 L 173.5 29 Z " /><path fill="rgb(200,200,200)" stroke="rgb(200,200,200)" stroke-width="1" opacity="1" d="M 149.5 39 L 148.5 41 L 149.5 39 Z " /><path fill="rgb(200,200,200)" stroke="rgb(200,200,200)" stroke-width="1" opacity="1" d="M 115.5 43 L 116 45.5 L 115 45.5 L 115.5 43 Z " /><path fill="rgb(200,200,200)" stroke="rgb(200,200,200)" stroke-width="1" opacity="1" d="M 172.5 43 L 175 43.5 L 172.5 44 L 172.5 43 Z " /><path fill="rgb(200,200,200)" stroke="rgb(200,200,200)" stroke-width="1" opacity="1" d="M 35.5 44 L 36 52.5 L 35 52.5 L 35.5 44 Z " /><path fill="rgb(200,200,200)" stroke="rgb(200,200,200)" stroke-width="1" opacity="1" d="M 143.5 45 L 142.5 47 L 143.5 45 Z " /><path fill="rgb(200,200,200)" stroke="rgb(200,200,200)" stroke-width="1" opacity="1" d="M 160.5 48 L 159.5 50 L 160.5 48 Z " /><path fill="rgb(200,200,200)" stroke="rgb(200,200,200)" stroke-width="1" opacity="1" d="M 115.5 53 L 116 55.5 L 115 55.5 L 115.5 53 Z " /><path fill="rgb(200,200,200)" stroke="rgb(200,200,200)" stroke-width="1" opacity="1" d="M 154.5 54 L 153.5 56 L 154.5 54 Z " /><path fill="rgb(200,200,200)" stroke="rgb(200,200,200)" stroke-width="1" opacity="1" d="M 36.5 57 L 38 60.5 L 36.5 60 L 33 59.5 L 36 59 L 36.5 57 Z " /><path fill="rgb(200,200,200)" stroke="rgb(200,200,200)" stroke-width="1" opacity="1" d="M 115.5 58 L 136 59.5 L 114.5 60 L 115.5 58 Z " /><path fill="rgb(200,200,200)" stroke="rgb(200,200,200)" stroke-width="1" opacity="1" d="M 179.5 58 L 183 58.5 L 179.5 59 L 179.5 58 Z " /><path fill="rgb(200,200,200)" stroke="rgb(200,200,200)" stroke-width="1" opacity="1" d="M 9.5 59 L 26 59.5 L 1.5 61 L 1.5 60 Q 7.7 61.8 9.5 59 Z " /><path fill="rgb(200,200,200)" stroke="rgb(200,200,200)" stroke-width="1" opacity="1" d="M 169.5 60 L 170 63.5 L 169 63.5 L 169.5 60 Z " /><path fill="rgb(200,200,200)" stroke="rgb(200,200,200)" stroke-width="1" opacity="1" d="M 194.5 65 L 193.5 67 L 194.5 65 Z " /><path fill="rgb(200,200,200)" stroke="rgb(200,200,200)" stroke-width="1" opacity="1" d="M 34.5 66 Q 40.5 64.5 42 67.5 L 40.5 67 L 22.5 69 L 3.5 74 L 3.5 73 L 34.5 66 Z " /><path fill="rgb(200,200,200)" stroke="rgb(200,200,200)" stroke-width="1" opacity="1" d="M 112.5 66 L 127 68.5 L 122.5 69 L 112.5 67 L 112.5 66 Z " /><path fill="rgb(200,200,200)" stroke="rgb(200,200,200)" stroke-width="1" opacity="1" d="M 134.5 67 L 135 69.5 L 135 71.5 L 134.5 77 L 134 71 L 128 69.5 L 131.5 69 L 134 70 L 134.5 67 Z " /><path fill="rgb(200,200,200)" stroke="rgb(200,200,200)" stroke-width="1" opacity="1" d="M 109.5 69 L 108.5 71 L 109.5 69 Z " /><path fill="rgb(200,200,200)" stroke="rgb(200,200,200)" stroke-width="1" opacity="1" d="M 148.5 69 L 149 77.5 L 148 77.5 L 148.5 69 Z " /><path fill="rgb(200,200,200)" stroke="rgb(200,200,200)" stroke-width="1" opacity="1" d="M 179.5 70 L 183 70.5 L 179.5 71 L 179.5 70 Z " /><path fill="rgb(200,200,200)" stroke="rgb(200,200,200)" stroke-width="1" opacity="1" d="M 44.5 72 L 43.5 74 L 19.5 86 L 20.5 84 L 44.5 72 Z " /><path fill="rgb(200,200,200)" stroke="rgb(200,200,200)" stroke-width="1" opacity="1" d="M 107.5 72 L 108 74 Q 121.3 77.1 130 85.5 L 127.5 84 L 107 73.5 L 107.5 72 Z " /><path fill="rgb(200,200,200)" stroke="rgb(200,200,200)" stroke-width="1" opacity="1" d="M 53.5 85 L 54 89.5 L 53 89.5 L 53.5 85 Z " /><path fill="rgb(200,200,200)" stroke="rgb(200,200,200)" stroke-width="1" opacity="1" d="M 102.5 88 L 103 90.5 L 102 90.5 L 102.5 88 Z " /><path fill="rgb(200,200,200)" stroke="rgb(200,200,200)" stroke-width="1" opacity="1" d="M 154.5 93 L 155.5 95 L 154.5 93 Z " /><path fill="rgb(200,200,200)" stroke="rgb(200,200,200)" stroke-width="1" opacity="1" d="M 156.5 96 L 157.5 98 L 156.5 96 Z " /><path fill="rgb(200,200,200)" stroke="rgb(200,200,200)" stroke-width="1" opacity="1" d="M 106.5 99 L 112.5 106 L 106.5 99 Z " /><path fill="rgb(200,200,200)" stroke="rgb(200,200,200)" stroke-width="1" opacity="1" d="M 160.5 101 L 163.5 105 L 160.5 101 Z " /><path fill="rgb(200,200,200)" stroke="rgb(200,200,200)" stroke-width="1" opacity="1" d="M 116.5 108 L 118.5 111 L 116.5 108 Z " /><path fill="rgb(200,200,200)" stroke="rgb(200,200,200)" stroke-width="1" opacity="1" d="M 147.5 108 L 148.5 110 L 147.5 108 Z " /><path fill="rgb(200,200,200)" stroke="rgb(200,200,200)" stroke-width="1" opacity="1" d="M 150.5 112 L 151.5 114 L 150.5 112 Z " /><path fill="rgb(200,200,200)" stroke="rgb(200,200,200)" stroke-width="1" opacity="1" d="M 124.5 115 L 137.5 129 L 124.5 115 Z " /><path fill="rgb(200,200,200)" stroke="rgb(200,200,200)" stroke-width="1" opacity="1" d="M 154.5 117 L 156.5 120 L 154.5 117 Z " /><path fill="rgb(200,200,200)" stroke="rgb(200,200,200)" stroke-width="1" opacity="1" d="M 179.5 121 L 180.5 123 L 179.5 121 Z " /><path fill="rgb(200,200,200)" stroke="rgb(200,200,200)" stroke-width="1" opacity="1" d="M 45.5 125 L 46 127.5 L 45 127.5 L 45.5 125 Z " /><path fill="rgb(200,200,200)" stroke="rgb(200,200,200)" stroke-width="1" opacity="1" d="M 183.5 126 L 184.5 128 L 183.5 126 Z " /><path fill="rgb(200,200,200)" stroke="rgb(200,200,200)" stroke-width="1" opacity="1" d="M 164.5 128 L 171.5 136 L 164.5 128 Z " /><path fill="rgb(200,200,200)" stroke="rgb(200,200,200)" stroke-width="1" opacity="1" d="M 141.5 133 L 142.5 135 L 141.5 133 Z " /><path fill="rgb(200,200,200)" stroke="rgb(200,200,200)" stroke-width="1" opacity="1" d="M 45.5 148 L 46 150.5 L 45 150.5 L 45.5 148 Z " /><path fill="rgb(200,200,200)" stroke="rgb(200,200,200)" stroke-width="1" opacity="1" d="M 196.5 154 L 197 156.5 L 196 156.5 L 196.5 154 Z " /><path fill="rgb(200,200,200)" stroke="rgb(200,200,200)" stroke-width="1" opacity="1" d="M 183.5 162 L 184 174.5 L 183 174.5 L 183.5 162 Z " /><path fill="rgb(200,200,200)" stroke="rgb(200,200,200)" stroke-width="1" opacity="1" d="M 196.5 173 L 197 175.5 L 196 175.5 L 196.5 173 Z " /><path fill="rgb(200,200,200)" stroke="rgb(200,200,200)" stroke-width="1" opacity="1" d="M 161.5 177 L 162 180.5 L 161 180.5 L 161.5 177 Z " /><path fill="rgb(200,200,200)" stroke="rgb(200,200,200)" stroke-width="1" opacity="1" d="M 182.5 181 L 183 183.5 L 182 183.5 L 182.5 181 Z " /><path fill="rgb(200,200,200)" stroke="rgb(200,200,200)" stroke-width="1" opacity="1" d="M 161.5 194 L 162 198.5 L 161 198.5 L 161.5 194 Z " /><path fill="rgb(200,200,200)" stroke="rgb(200,200,200)" stroke-width="1" opacity="1" d="M 62.5 202 L 63 206.5 L 62 206.5 L 62.5 202 Z " /><path fill="rgb(200,200,200)" stroke="rgb(200,200,200)" stroke-width="1" opacity="1" d="M 160.5 204 L 161 207.5 L 160 207.5 L 160.5 204 Z " /><path fill="rgb(200,200,200)" stroke="rgb(200,200,200)" stroke-width="1" opacity="1" d="M 159.5 213 L 160 216.5 L 159 216.5 L 159.5 213 Z " /><path fill="rgb(200,200,200)" stroke="rgb(200,200,200)" stroke-width="1" opacity="1" d="M 170.5 222 L 169.5 224 L 170.5 222 Z " /><path fill="rgb(200,200,200)" stroke="rgb(200,200,200)" stroke-width="1" opacity="1" d="M 60.5 231 L 63 231.5 L 60.5 232 L 60.5 231 Z " /><path fill="rgb(200,200,200)" stroke="rgb(200,200,200)" stroke-width="1" opacity="1" d="M 54.5 233 L 53.5 235 L 54.5 233 Z " /><path fill="rgb(200,200,200)" stroke="rgb(200,200,200)" stroke-width="1" opacity="1" d="M 52.5 236 L 53 240.5 L 52 240.5 L 52.5 236 Z " /><path fill="rgb(200,200,200)" stroke="rgb(200,200,200)" stroke-width="1" opacity="1" d="M 177.5 238 L 175.5 241 L 177.5 238 Z " /><path fill="rgb(200,200,200)" stroke="rgb(200,200,200)" stroke-width="1" opacity="1" d="M 158.5 244 L 161 244.5 L 158.5 245 L 158.5 244 Z " /><path fill="rgb(200,200,200)" stroke="rgb(200,200,200)" stroke-width="1" opacity="1" d="M 63.5 245 L 67 245.5 L 63.5 246 L 63.5 245 Z " /><path fill="rgb(200,200,200)" stroke="rgb(200,200,200)" stroke-width="1" opacity="1" d="M 150.5 245 L 154 245.5 L 150.5 246 L 150.5 245 Z " /><path fill="rgb(200,200,200)" stroke="rgb(200,200,200)" stroke-width="1" opacity="1" d="M 72.5 246 L 78 246.5 L 72.5 247 L 72.5 246 Z " /><path fill="rgb(200,200,200)" stroke="rgb(200,200,200)" stroke-width="1" opacity="1" d="M 139.5 246 L 144 246.5 L 139.5 247 L 139.5 246 Z " /><path fill="rgb(200,200,200)" stroke="rgb(200,200,200)" stroke-width="1" opacity="1" d="M 86.5 247 L 95 247.5 L 86.5 248 L 86.5 247 Z " /><path fill="rgb(200,200,200)" stroke="rgb(200,200,200)" stroke-width="1" opacity="1" d="M 120.5 247 L 130 247.5 L 120.5 248 L 120.5 247 Z " /><path fill="rgb(255,255,255)" stroke="rgb(255,255,255)" stroke-width="1" opacity="1" d="M 0 0 L 120 0.5 Q 105.4 5.4 95.5 15 L 90.5 15 L 84.5 13 L 66.5 13 L 59.5 15 L 43.5 6 L 30 2 L 32 18.5 L 38 31.5 L 38 34.5 L 35 44.5 L 35 52.5 L 36 59 L 33 59.5 L 38 61.5 L 40 65.5 L 34 66.5 Q 42.9 65.6 45 71.5 L 44.5 73 Q 49.5 72.5 50 76.5 Q 55 82 53 94.5 L 45 125.5 L 45 150.5 L 51 172.5 Q 58 184 62 198.5 L 63 231 L 56.5 232 L 53 234.5 L 52 240.5 L 58.5 245 L 86 247.5 L 0 248 L 0 0 Z M 10 59 L 10 60 L 26 60 L 10 59 Z M 2 60 L 2 61 L 9 61 L 2 60 Z M 29 67 L 29 68 L 34 68 L 29 67 Z M 23 68 L 23 69 L 28 69 L 23 68 Z M 18 69 L 18 70 L 22 70 L 18 69 Z M 14 70 L 14 71 L 17 71 L 14 70 Z M 11 71 L 11 72 L 13 72 L 11 71 Z M 7 72 L 7 73 L 10 73 L 7 72 Z M 4 73 L 4 74 L 6 74 L 4 73 Z M 42 73 L 40 74 L 40 75 L 44 74 L 42 73 Z M 33 77 L 31 78 L 30 80 L 35 78 L 33 77 Z M 24 82 L 23 84 L 25 83 L 24 82 Z " /><path fill="rgb(255,255,255)" stroke="rgb(255,255,255)" stroke-width="1" opacity="1" d="M 122.5 0 L 203 0 L 203 43.5 L 202 43.5 Q 201 35.5 194.5 33 Q 187.6 27.4 173.5 29 Q 152.4 32.4 142 46.5 L 136 59 L 119.5 59 L 115 58 L 116 55.5 L 116 43.5 L 113 34.5 L 121 20.5 L 123 11.5 L 123 1.5 L 122.5 0 Z " /><path fill="rgb(255,255,255)" stroke="rgb(255,255,255)" stroke-width="1" opacity="1" d="M 175.5 43 Q 185.7 42.8 190 48.5 L 190 52.5 L 188 56 L 184.5 58 L 176.5 58 L 172.5 57 Q 168.3 57.8 169 63.5 L 173.5 69 L 182.5 71 Q 194.5 69 200 60.5 L 202.5 54 L 203 248 L 130 247.5 L 167.5 244 L 175.5 241 L 178 238.5 Q 197.6 206.6 197 154.5 Q 193.5 138.5 185 127.5 Q 167.7 111.8 154 92.5 L 149 80.5 L 149 66.5 Q 151.5 56 158.5 50 Q 165.1 44.6 175.5 43 Z " /><path fill="rgb(255,255,255)" stroke="rgb(255,255,255)" stroke-width="1" opacity="1" d="M 114 60 L 136 60.5 L 134 70 L 132 70.5 L 134 71 L 136 87.5 L 143 102.5 Q 156.3 122.7 174 138.5 L 180 148.5 L 183 158.5 L 183 180.5 L 180 197.5 L 176 210.5 L 167.5 226 L 161.5 227 Q 157.8 224.8 159 217.5 L 160 216.5 L 160 208.5 L 162 198.5 L 162 177.5 Q 158.2 157.8 149 143.5 Q 138.8 127.2 124.5 115 L 105 97.5 L 102 87.5 L 102 81.5 L 106.5 74 Q 109.1 74.8 108 71.5 L 111.5 67 L 116 66.5 L 112 66 L 114 60 Z M 117 67 L 117 68 L 122 68 L 117 67 Z M 123 68 L 123 69 L 127 69 L 123 68 Z M 129 69 L 129 70 L 132 70 L 129 69 Z M 109 74 L 109 75 L 111 75 L 109 74 Z M 124 81 L 125 83 L 126 83 L 124 81 Z " /><path fill="rgb(71,71,71)" stroke="rgb(71,71,71)" stroke-width="1" opacity="1" d="M 30 2 L 32 2.5 L 30 3.5 L 30 2 Z " /><path fill="rgb(71,71,71)" stroke="rgb(71,71,71)" stroke-width="1" opacity="1" d="M 69.5 13 L 73 13.5 L 69.5 14 L 69.5 13 Z " /><path fill="rgb(71,71,71)" stroke="rgb(71,71,71)" stroke-width="1" opacity="1" d="M 79.5 13 L 83 13.5 L 79.5 14 L 79.5 13 Z " /><path fill="rgb(71,71,71)" stroke="rgb(71,71,71)" stroke-width="1" opacity="1" d="M 195.5 34 L 199.5 39 L 195.5 34 Z " /><path fill="rgb(71,71,71)" stroke="rgb(71,71,71)" stroke-width="1" opacity="1" d="M 152.5 37 L 151.5 39 L 152.5 37 Z " /><path fill="rgb(71,71,71)" stroke="rgb(71,71,71)" stroke-width="1" opacity="1" d="M 147.5 41 L 144.5 45 L 147.5 41 Z " /><path fill="rgb(71,71,71)" stroke="rgb(71,71,71)" stroke-width="1" opacity="1" d="M 187.5 45 L 189.5 48 L 187.5 45 Z " /><path fill="rgb(71,71,71)" stroke="rgb(71,71,71)" stroke-width="1" opacity="1" d="M 115.5 46 L 116 52.5 L 115 52.5 L 115.5 46 Z " /><path fill="rgb(71,71,71)" stroke="rgb(71,71,71)" stroke-width="1" opacity="1" d="M 190.5 49 L 191 51.5 L 190 51.5 L 190.5 49 Z " /><path fill="rgb(71,71,71)" stroke="rgb(71,71,71)" stroke-width="1" opacity="1" d="M 157.5 50 L 155.5 53 L 157.5 50 Z " /><path fill="rgb(71,71,71)" stroke="rgb(71,71,71)" stroke-width="1" opacity="1" d="M 198.5 61 L 195.5 65 L 198.5 61 Z " /><path fill="rgb(71,71,71)" stroke="rgb(71,71,71)" stroke-width="1" opacity="1" d="M 111.5 65 L 112 66.5 L 109 68.5 L 111.5 65 Z " /><path fill="rgb(71,71,71)" stroke="rgb(71,71,71)" stroke-width="1" opacity="1" d="M 170.5 65 L 172.5 68 L 170.5 65 Z " /><path fill="rgb(71,71,71)" stroke="rgb(71,71,71)" stroke-width="1" opacity="1" d="M 42.5 68 L 43.5 70 L 42.5 68 Z " /><path fill="rgb(71,71,71)" stroke="rgb(71,71,71)" stroke-width="1" opacity="1" d="M 47.5 73 L 48.5 75 L 47.5 73 Z " /><path fill="rgb(71,71,71)" stroke="rgb(71,71,71)" stroke-width="1" opacity="1" d="M 106.5 73 L 105.5 75 L 106.5 73 Z " /><path fill="rgb(71,71,71)" stroke="rgb(71,71,71)" stroke-width="1" opacity="1" d="M 53.5 90 L 54 92.5 L 53 92.5 L 53.5 90 Z " /><path fill="rgb(71,71,71)" stroke="rgb(71,71,71)" stroke-width="1" opacity="1" d="M 158.5 99 L 159.5 101 L 158.5 99 Z " /><path fill="rgb(71,71,71)" stroke="rgb(71,71,71)" stroke-width="1" opacity="1" d="M 113.5 106 L 114.5 108 L 113.5 106 Z " /><path fill="rgb(71,71,71)" stroke="rgb(71,71,71)" stroke-width="1" opacity="1" d="M 167.5 109 L 168.5 111 L 167.5 109 Z " /><path fill="rgb(71,71,71)" stroke="rgb(71,71,71)" stroke-width="1" opacity="1" d="M 119.5 111 L 121.5 114 L 119.5 111 Z " /><path fill="rgb(71,71,71)" stroke="rgb(71,71,71)" stroke-width="1" opacity="1" d="M 170.5 112 L 178.5 121 L 170.5 112 Z " /><path fill="rgb(71,71,71)" stroke="rgb(71,71,71)" stroke-width="1" opacity="1" d="M 152.5 114 L 153.5 116 L 152.5 114 Z " /><path fill="rgb(71,71,71)" stroke="rgb(71,71,71)" stroke-width="1" opacity="1" d="M 157.5 120 L 160.5 124 L 157.5 120 Z " /><path fill="rgb(71,71,71)" stroke="rgb(71,71,71)" stroke-width="1" opacity="1" d="M 45.5 128 L 46 131.5 L 45 131.5 L 45.5 128 Z " /><path fill="rgb(71,71,71)" stroke="rgb(71,71,71)" stroke-width="1" opacity="1" d="M 139.5 131 L 140.5 133 L 139.5 131 Z " /><path fill="rgb(71,71,71)" stroke="rgb(71,71,71)" stroke-width="1" opacity="1" d="M 172.5 136 L 173.5 138 L 172.5 136 Z " /><path fill="rgb(71,71,71)" stroke="rgb(71,71,71)" stroke-width="1" opacity="1" d="M 45.5 145 L 46 147.5 L 45 147.5 L 45.5 145 Z " /><path fill="rgb(71,71,71)" stroke="rgb(71,71,71)" stroke-width="1" opacity="1" d="M 183.5 159 L 184 161.5 L 183 161.5 L 183.5 159 Z " /><path fill="rgb(71,71,71)" stroke="rgb(71,71,71)" stroke-width="1" opacity="1" d="M 196.5 170 L 197 172.5 L 196 172.5 L 196.5 170 Z " /><path fill="rgb(71,71,71)" stroke="rgb(71,71,71)" stroke-width="1" opacity="1" d="M 183.5 175 L 184 177.5 L 183 177.5 L 183.5 175 Z " /><path fill="rgb(71,71,71)" stroke="rgb(71,71,71)" stroke-width="1" opacity="1" d="M 161.5 181 L 162 193.5 L 161 193.5 L 161.5 181 Z " /><path fill="rgb(71,71,71)" stroke="rgb(71,71,71)" stroke-width="1" opacity="1" d="M 159.5 210 L 160 212.5 L 159 212.5 L 159.5 210 Z " /><path fill="rgb(71,71,71)" stroke="rgb(71,71,71)" stroke-width="1" opacity="1" d="M 63.5 214 L 64 230.5 L 63 230.5 L 63.5 214 Z " /><path fill="rgb(71,71,71)" stroke="rgb(71,71,71)" stroke-width="1" opacity="1" d="M 168.5 225 L 167.5 227 L 168.5 225 Z " /><path fill="rgb(71,71,71)" stroke="rgb(71,71,71)" stroke-width="1" opacity="1" d="M 53.5 241 L 54.5 243 L 53.5 241 Z " /><path fill="rgb(71,71,71)" stroke="rgb(71,71,71)" stroke-width="1" opacity="1" d="M 147.5 245 L 150 245.5 L 147.5 246 L 147.5 245 Z " /><path fill="rgb(71,71,71)" stroke="rgb(71,71,71)" stroke-width="1" opacity="1" d="M 78.5 246 L 81 246.5 L 78.5 247 L 78.5 246 Z " /><path fill="rgb(71,71,71)" stroke="rgb(71,71,71)" stroke-width="1" opacity="1" d="M 135.5 246 L 139 246.5 L 135.5 247 L 135.5 246 Z " /><path fill="rgb(71,71,71)" stroke="rgb(71,71,71)" stroke-width="1" opacity="1" d="M 95.5 247 L 108 247.5 L 95.5 248 L 95.5 247 Z " /><path fill="rgb(71,71,71)" stroke="rgb(71,71,71)" stroke-width="1" opacity="1" d="M 112.5 247 L 120 247.5 L 112.5 248 L 112.5 247 Z " /><path fill="rgb(0,0,0)" stroke="rgb(0,0,0)" stroke-width="1" opacity="1" d="M 119.5 1 L 122 1.5 L 122 13.5 Q 119.6 27.1 112 35.5 Q 117.1 42.4 115 56.5 L 111 66.5 L 102 79.5 L 102 91.5 Q 105.3 102.6 114.5 108 L 139 130.5 Q 152.1 145.9 159 167.5 L 161 175.5 L 161 201.5 L 159 210.5 L 159 224.5 L 160 227 L 165.5 228 L 169 225.5 L 176 212.5 L 182 191.5 L 183 178.5 L 184 177.5 L 184 159.5 Q 181.2 146.3 174 137.5 Q 155.4 121.1 142 99.5 Q 133.7 87.3 135 65.5 Q 138 47.5 150.5 39 Q 162.1 28.1 186.5 30 Q 195.5 32.4 200 39.5 L 203 49.5 L 200 59.5 L 193.5 66 Q 188.8 71.3 177.5 70 L 170 64.5 L 171 58 L 183.5 59 L 190 53.5 L 191 49.5 L 187.5 45 Q 182.1 41.4 171.5 43 Q 161 45.5 155 52.5 L 149 63.5 L 148 79.5 L 155 95.5 L 168.5 111 Q 170.8 110.3 170 112.5 Q 183.1 122.9 191 138.5 L 196 153.5 L 197 169.5 L 196 170.5 L 196 178.5 L 195 179.5 L 194 190.5 L 189 212.5 L 180 234.5 L 174.5 241 L 169.5 243 L 147.5 245 L 146.5 246 L 112.5 247 L 108.5 248 L 107.5 247 L 81.5 247 L 80.5 246 L 61.5 245 L 55.5 243 L 53 240.5 Q 51.8 234.3 55.5 233 L 62.5 232 L 64 230.5 L 63 200.5 L 61 192.5 L 48 161.5 L 45 144.5 L 45 132.5 L 46 131.5 L 47 118.5 L 54 92.5 L 54 83.5 L 47.5 73 L 44 70.5 Q 34.4 62.1 36 42.5 L 39 31.5 L 33 19.5 L 31 3 L 39.5 5 L 57.5 15 L 63.5 15 L 64.5 14 L 78.5 13 L 94.5 16 Q 104.9 6.4 119.5 1 Z " /></svg>